{"asset":{"generator":"Khronos glTF Blender I/O v4.0.43","version":"2.0"},"extensionsUsed":["KHR_materials_specular","EXT_meshopt_compression"],"scene":0,"scenes":[{"name":"convert","nodes":[0]}],"nodes":[{"mesh":0,"name":"node_0","rotation":[0.7071068286895752,0,0,0.7071068286895752]}],"materials":[{"doubleSided":true,"extensions":{"KHR_materials_specular":{"specularColorFactor":[2,2,2]}},"name":"Material.001","normalTexture":{"index":0},"pbrMetallicRoughness":{"baseColorTexture":{"index":1},"metallicRoughnessTexture":{"index":2}}}],"meshes":[{"name":"node_0","primitives":[{"attributes":{"POSITION":0,"NORMAL":1,"TEXCOORD_0":2},"indices":3,"material":0}]}],"textures":[{"sampler":0,"source":0},{"sampler":0,"source":1},{"sampler":0,"source":2}],"images":[{"mimeType":"image/png","name":"texture_pbr_20250901_normal","uri":"texture-0.png"},{"mimeType":"image/png","name":"texture_pbr_20250901","uri":"texture-1.png"},{"mimeType":"image/png","name":"texture_pbr_20250901_metallic-texture_pbr_20250901_roughness","uri":"texture-2.png"}],"accessors":[{"bufferView":0,"componentType":5126,"count":971524,"max":[0.4544920027256012,0.4567359983921051,0],"min":[-0.4575760066509247,-0.4332840144634247,-0.9827709794044495],"type":"VEC3"},{"bufferView":1,"componentType":5126,"count":971524,"type":"VEC3"},{"bufferView":2,"componentType":5126,"count":971524,"type":"VEC2"},{"bufferView":3,"componentType":5125,"count":4489068,"type":"SCALAR"}],"bufferViews":[{"buffer":4,"byteLength":11658288,"byteOffset":0,"target":34962,"extensions":{"EXT_meshopt_compression":{"buffer":0,"byteOffset":0,"byteLength":7457054,"byteStride":12,"count":971524,"mode":"ATTRIBUTES","filter":"NONE"}}},{"buffer":4,"byteLength":11658288,"byteOffset":11658288,"target":34962,"extensions":{"EXT_meshopt_compression":{"buffer":1,"byteOffset":0,"byteLength":8762692,"byteStride":12,"count":971524,"mode":"ATTRIBUTES","filter":"NONE"}}},{"buffer":4,"byteLength":7772192,"byteOffset":23316576,"target":34962,"extensions":{"EXT_meshopt_compression":{"buffer":2,"byteOffset":0,"byteLength":5769976,"byteStride":8,"count":971524,"mode":"ATTRIBUTES","filter":"NONE"}}},{"buffer":4,"byteLength":17956272,"byteOffset":31088768,"target":34963,"extensions":{"EXT_meshopt_compression":{"buffer":3,"byteOffset":0,"byteLength":6437209,"byteStride":4,"count":4489068,"mode":"INDICES","filter":"NONE"}}}],"samplers":[{"magFilter":9729,"minFilter":9987}],"buffers":[{"uri":"mesh-0.bin","byteLength":7457054},{"uri":"mesh-1.bin","byteLength":8762692},{"uri":"mesh-2.bin","byteLength":5769976},{"uri":"mesh-3.bin","byteLength":6437209},{"byteLength":49045040,"extensions":{"EXT_meshopt_compression":{"fallback":true}}}],"extensionsRequired":["EXT_meshopt_compression"]}